<?xml version="1.0" encoding="utf-8"?>
<!-- Generator: Adobe Illustrator 24.0.1, SVG Export Plug-In . SVG Version: 6.00 Build 0)  -->
<svg version="1.1" id="Camada_1" xmlns="http://www.w3.org/2000/svg" xmlns:xlink="http://www.w3.org/1999/xlink" x="0px" y="0px"
	 viewBox="0 0 1920 1080" style="enable-background:new 0 0 1920 1080;" xml:space="preserve">
<style type="text/css">
	.st0{fill:#F5F5F5;}
	.st1{fill:#5692CD;stroke:#5692CD;stroke-miterlimit:10;}
	.st2{fill:#3F6E9C;stroke:#5692CD;stroke-miterlimit:10;}
	.st3{fill:#FFFFFF;stroke:#5692CD;stroke-miterlimit:10;}
	.st4{fill:#FFFFFF;}
	.st5{display:none;}
	.st6{display:inline;}
</style>
<g id="branco">
	<polygon class="st0" points="-10.2,1087.7 -14.6,570.4 2039.6,552.9 2044.2,1090.7 	"/>
</g>
<path class="st1" d="M72.8-12.6C61,1.1,50.4,15.2,41,29.9C-2.5,97.4-60.8,238.4,47.4,482.5c98.6,190.2,248,407,439.4,410
	c43,0.7,71.4-9.7,115.8-24.3c306.6-101,528.3-174,743.1-163.1c180.3,9.1,280.7,73.6,511.6,39.2c46.8-7,62.2-8.6,75.6-14.1
	c185.2-76.8,185.5-494.4,1.1-716.4c-9.3-11.2-19.3-22.2-29.9-32.8"/>
<path class="st2" d="M-52.7-15.2L-55,472.1c0,0,84.9,194.4,135.5,265.8c62.6,88.4,110.3,160.2,204.9,208c12,6.1,69.4,34.3,150.8,44
	c327.3,38.8,529.4-284,819.9-240.5c0,0,210.3,38.7,210.3,38.7l125.1,21l72.5,2.1c-31.4-39.7-83.7-97.2-167.9-158.4
	c-5.3-3.9-9-6.5-12.5-8.9c-112.8-79.6-193.9-109.2-258-147.8c-130.2-78.5-197.5-198.5-206.4-214.8C973.2,196.5,979.3,149.1,916.2,98
	c-38.7-31.3-64-32.1-131.4-75.3C762.5,8.4,742.7-6,725.4-19.6"/>
<g id="pc" transform="translate(0.000000,780.000000) scale(0.100000,-0.100000)">
	<polygon class="st3" points="17175,-885 17175,-1050.9 17395,-1055 17435,-805 	"/>
	<polygon class="st4" points="11271.9,-637.1 11271.9,3530 17398.9,3530 17398.9,1233.9 17398.9,-637.1 	"/>
	<path d="M11289,3559.7c-66.8-22.5-100.2-51-133.7-113.6l-14.6-27.3l-1.8-2058.4c-1.2-1920.5-0.6-2060.2,9.1-2080.2
		c5.5-12.2,19.4-27.3,31-34c15.2-9.1,18.2-13.4,12.2-17c-4.3-3-168.3-5.5-363.9-5.5c-346.3,0-356.6-0.6-370-12.2
		c-11.5-10.3-13.4-15.2-9.1-34.6c2.4-12.8,6.7-35.2,9.1-50.4c3-15.2,5.5-60.1,5.5-100.9c0.6-66.2,1.8-75.9,16.4-104.5
		c17.6-35.2,39.5-54.7,83.2-73.5l29.8-12.8h3741.3h3741.3l29.8,12.8c43.7,18.8,65.6,38.3,83.2,73.5c14.6,28.6,15.8,38.3,16.4,104.5
		c0,40.7,2.4,85.7,5.5,100.9c2.4,15.2,6.7,37.1,9.1,48.6c3,17,1.2,24.3-9.1,35.2l-12.8,13.4h-356.6c-196.2,0-360.3,2.4-364.5,5.5
		c-6.1,3.6-3,7.9,12.2,17c11.5,6.7,25.5,21.9,31,34c9.7,20,10.3,159.8,9.1,2080.2l-1.8,2058.4l-14.6,27.3
		c-34,63.8-72.3,95.4-141,115.4c-40.1,12.2-65,12.2-3040.8,11.5h-3000.7L11289,3559.7z M13279.3,3510.5
		c20.7-20.7,24.9-43.1,12.8-68.7c-10.9-23.7-41.9-39.5-65-34c-26.7,6.7-48,32.2-48,58.3C13179,3517.1,13244.1,3545.7,13279.3,3510.5
		z M17321.3,3362.2c6.1-4.3,7.3-400.4,6.1-1961.2l-1.8-1955.7h-2992.2h-2992.2l-1.8,1955.7c-1.2,1560.8,0,1956.9,6.1,1961.2
		C11355.8,3368.3,17311,3368.3,17321.3,3362.2z M15308.5-770.3c1.8-3-1.8-18.2-8.5-32.8c-21.9-50.4,64.4-46.2-966.6-46.2
		s-944.7-4.3-966.6,46.2c-6.7,14.6-10.3,29.8-8.5,32.8C13363.1-761.8,15303.6-761.8,15308.5-770.3z M17357.8-895.5
		c35.8-23.7,48-79,25.5-116c-17-28.6-43.7-40.1-83.8-37.1c-29.2,2.4-36.5,6.1-53.5,24.9c-27.3,29.2-31.6,57.1-15.2,91.7
		C17253.9-884.5,17314-866.9,17357.8-895.5z M17619-895.5c51-32.8,48.6-117.9-4.3-145.2c-70.5-36.5-155.5,31.6-126.4,101.5
		C17510.3-886.4,17572.8-865.7,17619-895.5z M17857.8-885.8c68-18.8,82-115.4,21.9-151.9c-34.6-21.3-88.1-13.4-115.4,17
		c-38.3,41.9-14.6,117.9,41.9,134.9C17829.8-879.1,17832.9-879.1,17857.8-885.8z M11253.1-946.5c6.7-6.7,12.2-15.8,12.2-20.7
		c0-11.5-15.8-27.3-32.2-31c-7.3-1.8-115.4-3-239.4-1.8c-221.8,1.8-226.6,1.8-239.4,14.6c-15.2,15.8-11.5,37.1,8.5,45
		c7.3,3,117.9,5.5,246.1,5.5C11233.1-934.4,11241.6-935,11253.1-946.5z"/>
</g>
<g class="st5">
	<g id="Camada_1_1_" class="st6">
		<path d="M1313.5,693.9c0.5-5,0.9-11,1.2-18c3-15.6,0.5-35.2-8.8-53.7c-9.2-18.4-29.2-29.3-49.4-28.1c-1.1-25.2-15-45.9-43.1-45.9
			c-29.4,0-30.7,34.5-45.5,56.2c-6.7,9.8,26.8,34.8,45.5,34.8h0.2c1.7,0.1,4-0.1,6.7-0.6c2.8-0.5,5.7-1.3,8.5-2.4
			c13.5-4.1,21.6-4.4,26.2-2.2c-3.5,16.6-18.9,30.7-28.8,47.4c-14.8,24.6,4.9,39.5,14.8,39.5c14.8,0,14.8-14.8,9.9-14.8
			c-9.9,0-13-15.3-9.9-24.6c3.2-9.7,12.9-17.4,19.1-29.8c-1.3,8.3-4.3,17.7-4.3,24.9c0,22.5,5.8,29.6,29.6,29.6
			c0.9,0,1.8-0.2,2.7-0.3c-0.9,0.2-1.8,0.3-2.7,0.3c-23.1,0-27.1,4.4-27.1,9.9c0,4,2.5,4.9,7.4,4.9h34.5c3.2,0,8.5,0,11.8-16.4"/>
		<path d="M1222.1,581.8c0-10.3-8.4-18.7-18.7-18.7s-18.7,8.4-18.7,18.7c0,1.3,0.2,2.7,0.4,4c-5.1,1.9-9.8,5.7-13.1,11.8
			c-1.3,2.4-2.6,4.7-4.1,6.9c-3.5,5.1,4.1,14.5,14.8,22.2c9.6,6.9,29.6,2.6,29.6-24.2c0-1.4-0.2-2.8-0.5-4
			C1217.9,595.4,1222.1,589.1,1222.1,581.8z M1235.2,575.4c0,9.5-1.3,17.3,8.3,17.3s17.3-7.7,17.3-17.3c0-9.5-7.7-17.3-17.3-17.3
			S1235.2,565.9,1235.2,575.4z"/>
		<path d="M1203.7,584.6c0,4.4-2.4,8-5.4,8c-3,0-5.4-3.6-5.4-8s2.4-8,5.4-8C1201.3,576.6,1203.7,580.2,1203.7,584.6z"/>
		<path d="M1186.7,602.5c0,2.7-10.7,9.9-15.2,9.9c-4.5,0-4.5-2.2-4.5-4.9h4.5C1176.9,607.4,1186.7,599.8,1186.7,602.5z"/>
	</g>
	<g id="texto" class="st6">
		<g>
			<path d="M1306.4,701.1l7.4-7.5c3.5,5.4,8.1,8.1,13.7,8.1c5.4,0,10.5-2.3,15.2-6.8c4.8-4.5,10.4-12.5,17-23.9l23.8-41
				c-4-0.5-7.4-0.7-10.3-0.7c-7.7,0-13.6,1.9-17.8,5.8s-6.2,9.3-6.2,16.5l-10.8,5.4c0.7-6.9,2.6-12.6,5.8-17.2
				c3.5-5,7.6-8.6,12.3-10.7c4.7-2.1,11.6-3.5,20.6-4.1c1.8-0.1,4.5-0.3,8.2-0.6l11.2-2l0.7,18.4l3.2,38.1
				c0.7,8.9,1.8,14.7,3.1,17.5c1.3,2.8,3.7,4.2,7.2,4.2c0.6,0,2.8-0.1,6.4-0.3l-0.7,3.6l-25.3,4.2l-2.3-27.2h-30
				c-5.8,10.1-11.3,17.1-16.5,21.1c-5.2,4-11.3,6-18.5,6C1317.2,707.7,1311.3,705.5,1306.4,701.1z M1361.4,676.5h27.3l-3.5-41.4
				L1361.4,676.5z"/>
			<path d="M1387.9,741.7l7.9-8.2c3.5,1.4,7.1,2.2,10.8,2.2c5.3,0,9.3-1.8,12.1-5.3c2.9-3.6,5-9.5,6.4-17.7l10.6-62.6h-12.3l3.9-4.1
				h9.3l0.2-0.7c2.1-10.7,6.9-19.3,14.5-26c7.6-6.7,16.3-10,26.3-10c3.2,0,6.1,0.3,8.9,0.9l-7.9,8.4c-3.4-2.1-6.9-3.2-10.5-3.2
				c-5.5,0-9.6,1.6-12.3,4.9c-2.7,3.3-4.9,9.2-6.6,17.9l-1.6,7.8h20.6l-4.5,4.9c-4.7-0.5-9.3-0.8-14.1-0.8h-2.9l-8.1,47.4
				c-2.4,14.4-7.2,25.5-14.5,33.3c-7.2,7.8-16.3,11.7-27.2,11.7C1394,742.4,1391,742.2,1387.9,741.7z"/>
			<path d="M1434,741.7l7.9-8.2c3.5,1.4,7.1,2.2,10.8,2.2c5.3,0,9.3-1.8,12.1-5.3c2.9-3.6,5-9.5,6.4-17.7l10.6-62.6h-12.3l3.9-4.1
				h9.3l0.2-0.7c2.1-10.7,6.9-19.3,14.5-26c7.6-6.7,16.3-10,26.3-10c3.2,0,6.1,0.3,8.9,0.9l-7.9,8.4c-3.4-2.1-6.9-3.2-10.5-3.2
				c-5.5,0-9.6,1.6-12.3,4.9c-2.7,3.3-4.9,9.2-6.6,17.9l-1.6,7.8h20.6l-4.5,4.9c-4.7-0.5-9.3-0.8-14.1-0.8h-2.9l-8.1,47.4
				c-2.4,14.4-7.2,25.5-14.5,33.3c-7.2,7.8-16.3,11.7-27.2,11.7C1440.1,742.4,1437.1,742.2,1434,741.7z"/>
			<path d="M1562.9,690.6l-0.8,4.3c-11.7,8.2-21.6,12.2-29.9,12.2c-5.2,0-9.5-1.8-12.7-5.5c-3.3-3.7-4.9-8.4-4.9-14.2
				c0-10.3,4-20.1,11.9-29.2c7.9-9.1,16.4-13.7,25.4-13.7c3.3,0,5.9,1.1,7.9,3.3c2,2.2,3,5.1,3,8.6c0,7-3.6,13.1-10.8,18.2
				c-7.2,5.1-15.8,7.6-25.8,7.6l-0.1,2.5c0,10.7,3.9,16.1,11.8,16.1C1544.8,700.7,1553.1,697.3,1562.9,690.6z M1526.4,678.8
				c8.2-0.7,14.7-2.8,19.3-6.4c4.6-3.6,6.9-8.2,6.9-13.9c0-5.6-2-8.4-6.1-8.4c-4.4,0-8.7,2.9-12.8,8.8
				C1529.6,664.8,1527.2,671.4,1526.4,678.8z"/>
			<path d="M1575.4,675.8l2.3-8.2h25.1l-2.3,8.2H1575.4z"/>
			<path d="M1648.8,689l-1,5.1c-8.1,8.6-15.3,13-21.7,13c-5.3,0-7.9-2.8-7.9-8.3c0-1.9,0.4-5,1.3-9.3l3.8-19.2c1-5.4,1.5-9,1.5-10.9
				c0-3.1-1.2-4.6-3.6-4.6c-1.6,0-4.6,0.6-8.9,1.9l0.7-3.4l26.9-8.8l-4.2,17.6l-5.4,27.2c-0.8,4.3-1.3,7-1.3,8.2
				c0,2.4,1.1,3.6,3.3,3.6C1636.1,701.1,1641.5,697.1,1648.8,689z M1628.6,634.9l3.7-7.5l15.5-10.1l-4.7,10.1L1628.6,634.9z"/>
			<path d="M1667.6,649.9H1655l3.8-4.1h9.6l3.2-15.6l11.4-2.7l-3.6,18.3h20.8l-4.5,4.8c-4.7-0.5-8.9-0.8-12.6-0.8h-4.5l-7.4,37.7
				c-0.8,3.9-1.2,6.6-1.2,8.2c0,2.9,1.3,4.4,3.9,4.4c4,0,9.4-2.9,16.3-8.8l-1,5.1c-7.1,7.1-14,10.6-20.5,10.6
				c-6.2,0-9.4-3.4-9.4-10.4c0-2.5,0.4-5.7,1.2-9.8L1667.6,649.9z"/>
		</g>
	</g>
</g>
</svg>