<svg id="Camada_1" data-name="Camada 1" xmlns="http://www.w3.org/2000/svg" viewBox="0 0 813.89 605.12"><defs><style>.cls-1{fill:#323232;}</style></defs><title>paleta</title><path class="cls-1" d="M1021.46,341.88a3.24,3.24,0,0,1-1.33.6,13.89,13.89,0,0,0-3.35,1.95c-2.36,1.67-3.49,3.12-16,20.8C933.41,460.71,869.51,554.1,840.91,599l-3.19,5-4.47.61-4.5.65.38,2.44c.21,1.36.85,4.47,1.39,6.93l1,4.44-2.33,1.83a14.53,14.53,0,0,0-3.12,3.22c-.43.78-13.58,25.78-29.2,55.57-25.34,48.31-28.55,54.2-29.38,54.21-.55.05-3.52.35-6.64.71-8.58,1-14.91,3.34-21.51,8.13-7.14,5.15-11.12,10.17-18.46,23.29-11.21,20.06-28.19,47.52-40.42,65.36l-2.3,3.33,4.87-.52c10.59-1.08,48.2-6.66,57.79-8.58,21.75-4.27,33.75-8.47,43.76-15.3q18.71-12.65,19.77-38.12a33.8,33.8,0,0,0-.79-9.76l-1-5.12,41-48.39,41-48.39.51-2.62a11.49,11.49,0,0,1,.75-2.85c.1-.1,3.56-.83,7.64-1.62,6.62-1.3,7.38-1.54,7.1-2.05-.21-.33-1.21-2.19-2.27-4.17l-1.91-3.59,3.66-5.33c17-25,30.63-47.66,48.86-81.11,28.89-53,62.62-122.47,92-189.49,1.91-4.35,2.43-6.09,2.72-8.8.35-3.38.35-3.38-.79-6.14-3-7-7.78-10.54-15.49-11.45C1024.26,341,1022.26,341.16,1021.46,341.88Z" transform="translate(-229.93 -234.22)"/><path class="cls-1" d="M438.94,250c-57.16,18.82-106.71,53.11-143.17,99.1-13.18,16.66-28.1,40.35-36.37,58.08-26.85,57.15-35.28,116.21-25.6,179.28,1.57,10.27,10.35,43.94,14,53.67C273.31,708.4,318,761.82,379.56,797.86a294.43,294.43,0,0,0,92.05,35.26c43.92,9.06,88.5,8.18,130.21-2.44,12.22-3.12,14.91-4,18-5.79a51.08,51.08,0,0,0,25.54-43.66c.11-5.83-3.37-19.18-6.35-24.34-2.78-4.94-8.65-11.68-12.66-14.6-15.3-11.19-20.49-18.11-24.21-32.12-2.43-9.07-2.51-13.87-.59-23.49,2.89-14.37,11.79-26.46,25.15-34.18,4.36-2.5,5.87-3,45.6-13.71,44-11.95,45.35-12.42,59.09-19.65a168,168,0,0,0,80.31-93.9c14.39-41.73,12-83.76-7.44-129.63C773.38,322.76,708,268,624.38,245.23c-43.14-11.81-89.14-14.13-136-6.91C479.12,239.68,447.15,247.23,438.94,250Zm-34.85,78.66c25.17.34,46.56,18.92,50.11,43.53a49.83,49.83,0,0,1-7.47,34.77c-18.11,28.7-59.12,31.78-81.26,6.09-5.41-6.27-7.55-10.21-10.05-18.29a48.45,48.45,0,0,1-2-22.54,51.51,51.51,0,0,1,27.34-38C386,331.52,398.55,328.57,404.09,328.62ZM563.93,286.4a50.89,50.89,0,0,1,48.38,28.68c2.8,5.71,5.25,16.34,5.2,22.41-.11,10.32-4.44,22.92-10.78,30.82-18.07,22.89-50.94,26.45-73,8a51.07,51.07,0,0,1-11.89-63.79,50.7,50.7,0,0,1,42-26.08ZM334.63,484.56c20.39-2.25,39.92,8,50.3,26.29a55.7,55.7,0,0,1,6.21,23.78c-.08,35.65-34.4,60.17-67.84,48.57-10.52-3.64-19.4-10.7-26-20.57-3.32-5-3.61-5.57-6-14.66s-2.4-9.73-2-15.77a47.92,47.92,0,0,1,7.15-22.78A49.72,49.72,0,0,1,334.63,484.56ZM698.4,390.91a48.41,48.41,0,0,1,24.75,7,47.57,47.57,0,0,1,17.73,16.54c3.34,5.06,3.62,5.64,6,14.72s2.41,9.73,2,15.71c-1,11.84-5.25,22.34-12.65,30.66-23.52,26.46-65.44,21.82-82.92-9.24A55.78,55.78,0,0,1,647,442.47a51.49,51.49,0,0,1,30.57-47.38C682.52,393,692.55,390.94,698.4,390.91Z" transform="translate(-229.93 -234.22)"/></svg>