<?xml version="1.0" encoding="utf-8"?>
<!-- Generator: Adobe Illustrator 24.0.1, SVG Export Plug-In . SVG Version: 6.00 Build 0)  -->
<svg version="1.1" xmlns="http://www.w3.org/2000/svg" xmlns:xlink="http://www.w3.org/1999/xlink" x="0px" y="0px"
	 viewBox="0 0 768 780" style="enable-background:new 0 0 768 780;" xml:space="preserve">
<style type="text/css">
	.st0{display:none;}
	.st1{display:inline;fill:#020202;stroke:#000000;stroke-width:5;stroke-miterlimit:10;}
	.st2{fill:none;stroke:#FDFDFC;stroke-width:10;stroke-miterlimit:10;}
	.st3{display:none;fill:none;stroke:#FDFDFC;stroke-width:5;stroke-miterlimit:10;}
	.st4{fill:none;stroke:#FFFFFF;stroke-width:10;stroke-miterlimit:10;}
</style>
<g id="Camada_2" class="st0">
	<polygon class="st1" points="-69.5,-39.5 -60.5,818.5 824.5,800.5 815.5,-26.5 	"/>
</g>
<g id="Camada_1">
	<ellipse id="olhoE" class="st2" cx="258.4" cy="380.7" rx="37.5" ry="50.6"/>
	<ellipse id="olhoD" class="st2" cx="526.5" cy="386.7" rx="37.5" ry="50.6"/>
	<path id="nariE" class="st2" d="M371.4,550.5v-37c0,0-1.8-3.8-6-3.8s-6.9,2.2-7.2,4.1s0,36.7,0,36.7s0.9,4.2,4.5,4.3
		c3.5,0.1,5.3,0,5.3,0S371.4,553.2,371.4,550.5z"/>
	<path id="nariD" class="st2" d="M424.4,551.6v-37c0,0-1.8-3.8-6-3.8s-6.9,2.2-7.2,4.1s0,36.7,0,36.7s0.9,4.2,4.5,4.3
		c3.5,0.1,5.3,0,5.3,0S424.4,554.3,424.4,551.6z"/>
	<ellipse id="boca" class="st3" cx="390.9" cy="644.5" rx="39.7" ry="46.9"/>
	<path id="rostoM" class="st2" d="M563.8,510.7c8.2,21.1,12.7,44.1,12.7,68.1c0,104.2-84.9,188.6-189.7,188.6S197.1,683,197.1,578.9
		c0-25.9,5.3-50.7,14.8-73.2"/>
	<path id="rostE_3_" class="st2" d="M212.8,509.4c-57.5-25.4-97-84.4-95.3-152c2.3-89,75.2-159.3,162.9-157
		c44.3,1.2,83.9,20.6,111.9,51.1"/>
	<path id="rostD_2_" class="st2" d="M613.4,477.2c-23.2,23-45.2,38.4-49.1,34.4"/>
	<path id="rostD_1_" class="st2" d="M389.2,251c61.7-61.1,161.8-60,223.8,2.4s62.1,162.6,0.5,223.8"/>
	<path id="cabeca" class="st2" d="M222.1,672.5C113.2,612.7,39.3,496.9,39.3,363.8c0-49.5,10.2-96.6,28.6-139.3
		C121.9,99.5,246.3,12,391.2,12C585.5,12,743,169.5,743,363.8c0,138.1-79.6,257.7-195.4,315.3"/>
	<path id="oreD" class="st2" d="M571.8,61.9l11.1-6.7l21.3-8.9l34.4-7.6c0,0,11-1.8,17.5-1.5c6.5,0.3,16.2,0.4,18.4,0.9
		s19.4,4.3,28.2,10c8.8,5.7,23.3,14.8,30.6,26.5c7.3,11.8,8.8,15.6,8.8,15.6s4.5,9.3,6,16.1s2.2,13.5,2.2,13.5v15.8
		c0,0-0.5,33.4-8.9,53.1s-13.1,28-13.1,28s-9.6,12.5-10.6,12.7c-1,0.2-2-2.2-2-2.2l-7-15.6l-12.1-23.1l-10.5-17l-5.2-7.7l-12-16.3
		l-8.7-10.7l-16.3-18l-27.8-25.7l-23.5-18L571.8,61.9z"/>
	<path id="oreE" class="st2" d="M214.1,59.8L203,53.2l-21.3-8.8l-34.4-7.5c0,0-11-1.7-17.5-1.5c-6.5,0.3-16.2,0.4-18.4,0.9
		c-2.2,0.5-19.4,4.3-28.2,9.9S60,60.8,52.7,72.4s-8.8,15.3-8.8,15.3s-4.5,9.2-6,15.9c-1.5,6.7-2.2,13.3-2.2,13.3v15.6
		c0,0,0.5,32.9,8.9,52.3s13.1,27.6,13.1,27.6s9.6,12.3,10.6,12.5s2-2.2,2-2.2l7-15.4l12.1-22.7l10.5-16.8l5.2-7.6l12-16l8.7-10.5
		l16.3-17.7l27.8-25.3L193.4,73L214.1,59.8z"/>
	<path id="sombE" class="st4" d="M149.8,291c0,0-3.6,4.8-3.6,6s0,7.2,4.8,10.8c4.8,3.6,7.2,4.8,13.2-1.2s26.3-23.9,26.3-23.9l12-7.2
		c0,0,20.3-9.6,23.9-10.8s20.3-4.8,20.3-4.8l19.1-1.2H285c0,0,27.5,6,31.1,4.8c3.6-1.2,7.2-6,7.2-6v-6c0,0-1.2-4.8-3.6-6
		c-2.4-1.2-16.7-4.8-16.7-4.8s-16.7-2.4-19.1-2.4c-2.4,0-31.1,0-31.1,0s-29.9,6-33.5,7.2c-3.6,1.2-23.9,9.6-23.9,9.6
		s-21.5,13.2-22.7,14.4c-1.2,1.2-10.8,9.6-10.8,9.6L149.8,291z"/>
	<path id="sombD" class="st4" d="M622.3,291c0,0,3.6,4.8,3.6,6s0,7.2-4.8,10.8c-4.8,3.6-7.2,4.8-13.2-1.2s-26.3-23.9-26.3-23.9
		l-12-7.2c0,0-20.3-9.6-23.9-10.8c-3.6-1.2-20.3-4.8-20.3-4.8l-19.1-1.2h-19.1c0,0-27.5,6-31.1,4.8c-3.6-1.2-7.2-6-7.2-6v-6
		c0,0,1.2-4.8,3.6-6c2.4-1.2,16.7-4.8,16.7-4.8s16.7-2.4,19.1-2.4c2.4,0,31.1,0,31.1,0s29.9,6,33.5,7.2c3.6,1.2,23.9,9.6,23.9,9.6
		s21.5,13.2,22.7,14.4c1.2,1.2,10.8,9.6,10.8,9.6L622.3,291z"/>
</g>
</svg>
