<?xml version="1.0" encoding="utf-8"?>
<!-- Generator: Adobe Illustrator 24.0.1, SVG Export Plug-In . SVG Version: 6.00 Build 0)  -->
<svg version="1.1" xmlns="http://www.w3.org/2000/svg" xmlns:xlink="http://www.w3.org/1999/xlink" x="0px" y="0px"
	 viewBox="0 0 2000 720" style="enable-background:new 0 0 2000 720;" xml:space="preserve">
<style type="text/css">
	.st0{display:none;}
	.st1{display:inline;fill:#2B6FF9;}
	.st2{display:inline;fill:#FFF80B;}
	.st3{fill:#FFFFFF;}
	.st4{fill:#80A8D6;}
</style>
<g id="Camada_2" class="st0">
	<polygon class="st1" points="-195,-126 -195,915 2136,795 2036,-139 	"/>
	<path class="st2" d="M1468,1010"/>
</g>
<g id="Camada_1">
	<path class="st3" d="M560,540.3c2-18.6,3.5-40.7,4.4-66.9c11.1-57.9,1.9-130.6-32.5-199.4c-34.1-68.2-108.5-108.7-183.5-104.3
		C344.2,76.1,292.8-0.6,188.2-0.6c-109.3,0-114,128.2-169,208.7c-24.8,36.3,99.4,129.2,168.9,129.2l0.8,0c6.4,0.5,14.7-0.2,24.9-2.4
		c10.4-1.9,21-4.9,31.5-9c50-15.3,80.1-16.3,97.4-8.1c-13,61.7-70,114-107.1,175.9c-54.9,91.5,18.3,146.5,54.9,146.5
		c54.9,0,54.9-54.9,36.6-54.9c-36.6,0-48.2-56.8-36.6-91.5c12-36.1,47.8-64.5,70.9-110.8c-4.8,30.8-15.9,65.8-15.9,92.5
		c0,83.6,21.4,109.8,109.8,109.8c3.4,0,6.6-0.6,9.9-1c-3.2,0.6-6.5,1-9.9,1c-85.9,0-100.7,16.4-100.7,36.6
		c0,14.8,9.2,18.3,27.5,18.3h128.2c11.9,0,31.6-0.1,43.9-60.8"/>
	<path class="st4" d="M220.6,123.9c0-38.4-31.2-69.6-69.6-69.6c-38.4,0-69.6,31.1-69.6,69.6c0,5,0.6,9.9,1.6,14.7
		c-18.9,6.9-36.5,21-48.6,43.9c-4.7,8.9-9.7,17.5-15.2,25.6c-13,19.1,15.2,53.9,55,82.6c35.8,25.8,109.8,9.5,109.8-89.9
		c0-5.3-0.7-10.3-1.8-15C204.9,174.3,220.6,151.1,220.6,123.9z M269.1,100.1c0,35.4-4.7,64.1,30.7,64.1c35.4,0,64.1-28.7,64.1-64.1
		S335.2,36,299.8,36C264.4,36,269.1,64.7,269.1,100.1z"/>
	<path class="st3" d="M152.1,134.4c0,16.5-8.9,29.8-19.9,29.8c-11,0-19.9-13.3-19.9-29.8c0-16.5,8.9-29.8,19.9-29.8
		C143.2,104.6,152.1,117.9,152.1,134.4z"/>
	<path class="st3" d="M89.2,200.8c0,10.1-39.7,36.6-56.5,36.6S16,229.2,16,219.1h16.8C52.6,219.1,89.2,190.7,89.2,200.8z"/>
</g>
<g id="texto">
	<g>
		<path class="st3" d="M533.5,566.7l27.6-27.8c13,19.9,29.9,29.9,50.9,29.9c20,0,38.9-8.4,56.6-25.1c17.7-16.7,38.8-46.3,63.3-88.9
			l88.2-152.4c-14.9-1.8-27.6-2.7-38.3-2.7c-28.5,0-50.5,7.1-66,21.4c-15.5,14.3-23.2,34.6-23.2,61.1l-40.1,19.9
			c2.6-25.7,9.8-46.9,21.5-63.7c13-18.7,28.2-32,45.8-39.9c17.6-7.9,43.1-13,76.5-15.4c6.7-0.4,16.8-1.2,30.3-2.3l41.7-7.6l2.7,68.2
			L882.9,483c2.7,32.9,6.6,54.6,11.6,65c5,10.4,13.9,15.7,26.9,15.7c2.3,0,10.3-0.4,23.9-1.2l-2.7,13.5l-93.9,15.5l-8.4-100.9H728.9
			c-21.6,37.4-41.9,63.5-61.2,78.5c-19.2,14.9-42.1,22.4-68.7,22.4C573.7,591.5,551.9,583.2,533.5,566.7z M737.7,475.5h101.3
			l-13.1-153.8L737.7,475.5z"/>
		<path class="st3" d="M836.1,717.5l29.3-30.5c13.1,5.3,26.5,8,40.1,8c19.5,0,34.5-6.6,45.1-19.8c10.6-13.2,18.4-35.1,23.6-65.7
			l39.3-232.6h-45.8l14.3-15.1h34.6l0.6-2.7c7.8-39.6,25.7-71.7,53.8-96.5c28.1-24.8,60.7-37.1,97.8-37.1c11.9,0,22.8,1.2,32.9,3.5
			l-29.3,31.1c-12.7-7.9-25.7-11.9-39.1-11.9c-20.5,0-35.7,6-45.6,18.1c-10,12.1-18.1,34.2-24.6,66.4l-5.9,29.1h76.5l-16.6,18.2
			c-17.3-2-34.7-3.1-52.2-3.1h-10.6l-29.9,175.9c-9,53.5-26.9,94.7-53.8,123.8c-26.9,29.1-60.6,43.6-101.1,43.6
			C859,720.2,847.8,719.3,836.1,717.5z"/>
		<path class="st3" d="M1007.3,717.5l29.3-30.5c13.1,5.3,26.5,8,40.1,8c19.5,0,34.5-6.6,45.1-19.8c10.6-13.2,18.4-35.1,23.6-65.7
			l39.3-232.6h-45.8l14.3-15.1h34.6l0.6-2.7c7.8-39.6,25.7-71.7,53.8-96.5c28.1-24.8,60.7-37.1,97.8-37.1c11.9,0,22.8,1.2,32.9,3.5
			l-29.3,31.1c-12.7-7.9-25.7-11.9-39.1-11.9c-20.5,0-35.7,6-45.6,18.1c-10,12.1-18.1,34.2-24.6,66.4l-5.9,29.1h76.5l-16.6,18.2
			c-17.3-2-34.7-3.1-52.2-3.1h-10.6l-29.9,175.9c-9,53.5-26.9,94.7-53.8,123.8c-26.9,29.1-60.6,43.6-101.1,43.6
			C1030.2,720.2,1019,719.3,1007.3,717.5z"/>
		<path class="st3" d="M1486.1,527.8l-3.1,15.8c-43.4,30.3-80.3,45.4-110.9,45.4c-19.4,0-35.1-6.8-47.2-20.3
			c-12.1-13.6-18.1-31.1-18.1-52.6c0-38.4,14.7-74.6,44.2-108.4c29.5-33.9,60.9-50.8,94.3-50.8c12.1,0,22,4.1,29.5,12.3
			c7.5,8.2,11.3,18.8,11.3,31.9c0,26.1-13.4,48.6-40.1,67.4c-26.7,18.8-58.7,28.2-95.7,28.2l-0.2,9.2c0,39.8,14.6,59.7,43.8,59.7
			C1419,565.5,1449.8,552.9,1486.1,527.8z M1350.6,484.1c30.6-2.5,54.4-10.3,71.6-23.6c17.2-13.3,25.8-30.5,25.8-51.7
			c0-20.9-7.6-31.3-22.7-31.3c-16.4,0-32.2,10.9-47.5,32.6C1362.6,431.9,1353.5,456.5,1350.6,484.1z"/>
		<path class="st3" d="M1532.5,472.8l8.6-30.3h93.3l-8.6,30.3H1532.5z"/>
		<path class="st3" d="M1805.2,521.9l-3.7,19c-29.9,32.1-56.7,48.1-80.4,48.1c-19.6,0-29.5-10.3-29.5-30.9c0-7,1.6-18.4,4.7-34.4
			l14.1-71.2c3.8-20.2,5.7-33.6,5.7-40.3c0-11.5-4.4-17.2-13.3-17.2c-6.1,0-17.1,2.3-32.9,7l2.5-12.5l100-32.7l-15.5,65.5l-20,101.1
			c-3.1,15.8-4.7,25.9-4.7,30.3c0,8.9,4,13.3,12.1,13.3C1757.8,566.9,1778.1,551.9,1805.2,521.9z M1730.1,321.2l13.7-27.8l57.7-37.6
			l-17.6,37.6L1730.1,321.2z"/>
		<path class="st3" d="M1874.8,376.9h-46.9l14.1-15.1h35.6l11.7-57.9l42.3-10.2l-13.5,68.1h77.1l-16.8,18
			c-17.6-1.9-33.2-2.9-46.9-2.9h-16.6L1887.3,517c-2.9,14.5-4.3,24.6-4.3,30.5c0,10.8,4.8,16.2,14.3,16.2
			c14.7,0,34.8-10.9,60.4-32.7l-3.7,18.8c-26.5,26.2-51.9,39.3-76.3,39.3c-23.2,0-34.8-12.8-34.8-38.5c0-9.1,1.5-21.3,4.5-36.4
			L1874.8,376.9z"/>
	</g>
</g>
</svg>
