<?xml version="1.0" encoding="utf-8"?>
<!-- Generator: Adobe Illustrator 24.0.1, SVG Export Plug-In . SVG Version: 6.00 Build 0)  -->
<svg version="1.1" xmlns="http://www.w3.org/2000/svg" xmlns:xlink="http://www.w3.org/1999/xlink" x="0px" y="0px"
	 viewBox="0 0 2000 720" style="enable-background:new 0 0 2000 720;" xml:space="preserve">
<style type="text/css">
	.st0{display:none;}
	.st1{display:inline;fill:#FFF80B;}
	.st2{fill:#FFFFFF;}
	.st3{fill:#80A8D6;}
	.st4{font-family:'LucidaCalligraphy-Italic';}
	.st5{font-size:419.0022px;}
</style>
<g id="Camada_2" class="st0">
	<polygon class="st1" points="-195,-126 -195,915 2136,795 2036,-139 	"/>
	<path class="st1" d="M1468,1010"/>
</g>
<g id="Camada_1">
	<g>
		<path class="st2" d="M560,540.3c2-18.6,3.5-40.7,4.4-66.9c11.1-57.9,1.9-130.6-32.5-199.4c-34.1-68.2-108.5-108.7-183.5-104.3
			C344.2,76.1,292.8-0.6,188.2-0.6c-109.3,0-114,128.2-169,208.7c-24.8,36.3,99.4,129.2,168.9,129.2l0.8,0
			c6.4,0.5,14.7-0.2,24.9-2.4c10.4-1.9,21-4.9,31.5-9c50-15.3,80.1-16.3,97.4-8.1c-13,61.7-70,114-107.1,175.9
			c-54.9,91.5,18.3,146.5,54.9,146.5c54.9,0,54.9-54.9,36.6-54.9c-36.6,0-48.2-56.8-36.6-91.5c12-36.1,47.8-64.5,70.9-110.8
			c-4.8,30.8-15.9,65.8-15.9,92.5c0,83.6,21.4,109.8,109.8,109.8c3.4,0,6.6-0.6,9.9-1c-3.2,0.6-6.5,1-9.9,1
			c-85.9,0-100.7,16.4-100.7,36.6c0,14.8,9.2,18.3,27.5,18.3h128.2c11.9,0,31.6-0.1,43.9-60.8"/>
		<path class="st3" d="M220.6,123.9c0-38.4-31.2-69.6-69.6-69.6c-38.4,0-69.6,31.1-69.6,69.6c0,5,0.6,9.9,1.6,14.7
			c-18.9,6.9-36.5,21-48.6,43.9c-4.7,8.9-9.7,17.5-15.2,25.6c-13,19.1,15.2,53.9,55,82.6c35.8,25.8,109.8,9.5,109.8-89.9
			c0-5.3-0.7-10.3-1.8-15C204.9,174.3,220.6,151.1,220.6,123.9z M269.1,100.1c0,35.4-4.7,64.1,30.7,64.1c35.4,0,64.1-28.7,64.1-64.1
			S335.2,36,299.8,36C264.4,36,269.1,64.7,269.1,100.1z"/>
		<path class="st2" d="M152.1,134.4c0,16.5-8.9,29.8-19.9,29.8c-11,0-19.9-13.3-19.9-29.8c0-16.5,8.9-29.8,19.9-29.8
			C143.2,104.6,152.1,117.9,152.1,134.4z"/>
		<path class="st2" d="M89.2,200.8c0,10.1-39.7,36.6-56.5,36.6S16,229.2,16,219.1h16.8C52.6,219.1,89.2,190.7,89.2,200.8z"/>
		<text transform="matrix(1 0 0 1 514.8643 583.9043)" class="st2 st4 st5">Affe-it</text>
	</g>
</g>
</svg>
