<?xml version="1.0" encoding="utf-8"?>
<!-- Generator: Adobe Illustrator 24.0.1, SVG Export Plug-In . SVG Version: 6.00 Build 0)  -->
<svg version="1.1" xmlns="http://www.w3.org/2000/svg" xmlns:xlink="http://www.w3.org/1999/xlink" x="0px" y="0px"
	 viewBox="0 0 36 36" style="enable-background:new 0 0 36 36;" xml:space="preserve">
<style type="text/css">
	.st0{display:none;}
	.st1{display:inline;fill:#5692CD;}
	.st2{fill:#FFFFFF;}
	.st3{fill:#82AAD7;}
</style>
<g id="Camada_2" class="st0">
	<rect class="st1" width="36" height="36"/>
</g>
<g id="Camada_1">
	<path class="st2" d="M29,1c-4.1,0-6,3.5-6,6c0,2.6,2.4,5,5,5c1.9,0,3.5-1.3,3.8-3.1c0.2-1.4-0.4-3.2-2.4-3.8
		c-0.5-0.2-1.1,0.1-1.3,0.6c-0.2,0.5,0.1,1.1,0.6,1.3c1.2,0.4,1.2,1.3,1.1,1.6C29.7,9.3,29.1,10,28,10c-1.5,0-3-1.5-3-3
		c0-1.3,1-4,4-4c2.9,0,5,2.5,5,6v15c0,3.6-1.4,5.7-4.3,6.5c0.1-1,0.2-2.2,0.2-3.7c0.6-3.2,0.1-7.1-1.8-10.9c-1.9-3.7-5.9-5.9-10-5.7
		C17.9,5.2,15.1,1,9.4,1c-6,0-6.2,7-9.2,11.4c-1.4,2,5.4,7.1,9.2,7.1l0,0c0.4,0,0.8,0,1.4-0.1c0.6-0.1,1.1-0.3,1.7-0.5
		c2.7-0.8,4.4-0.9,5.3-0.4C17.1,21.8,14,24.6,12,28c-3,5,1,8,3,8c3,0,3-3,2-3c-2,0-2.6-3.1-2-5c0.7-2,2.6-3.5,3.9-6.1
		C18.6,23.6,18,25.5,18,27c0,4.6,1.2,6,6,6c0.2,0,0.4,0,0.5-0.1C24.4,33,24.2,33,24,33c-4.7,0-5.5,0.9-5.5,2c0,0.8,0.5,1,1.5,1h7
		c0.7,0,1.7,0,2.4-3.3c4.4-0.9,6.6-3.8,6.6-8.7V9C36,4.4,33,1,29,1z"/>
	<path class="st3" d="M11.2,7.8C11.2,5.7,9.5,4,7.4,4C5.3,4,3.6,5.7,3.6,7.8c0,0.3,0,0.5,0.1,0.8C2.6,9,1.7,9.7,1,11
		c-0.3,0.5-0.5,1-0.8,1.4c-0.7,1,0.8,2.9,3,4.5c2,1.4,6,0.5,6-4.9c0-0.3,0-0.6-0.1-0.8C10.3,10.6,11.2,9.3,11.2,7.8z M13.8,6.5
		c0,1.9-0.3,3.5,1.7,3.5c1.9,0,3.5-1.6,3.5-3.5S17.4,3,15.5,3C13.6,3,13.8,4.6,13.8,6.5z"/>
	<path class="st2" d="M7.4,8.4c0,0.9-0.5,1.6-1.1,1.6S5.3,9.3,5.3,8.4c0-0.9,0.5-1.6,1.1-1.6C6.9,6.7,7.4,7.5,7.4,8.4z"/>
	<path class="st2" d="M4,12c0,0.6-2.2,2-3.1,2S0,13.6,0,13h0.9C2,13,4,11.4,4,12z"/>
</g>
</svg>
